<svg id="Layer_1" data-name="Layer 1" xmlns="http://www.w3.org/2000/svg" viewBox="0 0 1074 450"><defs><style>.cls-1,.cls-12{fill:none;}.cls-2,.cls-3{fill:#fff;}.cls-12,.cls-3{stroke:#000;stroke-miterlimit:10;stroke-width:0.5px;}.cls-13,.cls-4,.cls-7{font-size:12px;font-family:Helvetica;}.cls-4,.cls-8{letter-spacing:0em;}.cls-5{letter-spacing:-0.01em;}.cls-6{letter-spacing:0em;}.cls-9{letter-spacing:-0.01em;}.cls-10{letter-spacing:-0.01em;}.cls-11{letter-spacing:-0.01em;}.cls-13{letter-spacing:0em;}.cls-14{letter-spacing:-0.01em;}.cls-15{letter-spacing:0em;}.cls-16{letter-spacing:-0.01em;}.cls-17{letter-spacing:0em;}.cls-18{letter-spacing:-0.01em;}.cls-19{letter-spacing:-0.01em;}.cls-20{letter-spacing:-0.01em;}.cls-21{letter-spacing:0em;}.cls-22{letter-spacing:-0.03em;}.cls-23{letter-spacing:-0.03em;}.cls-24{letter-spacing:0.02em;}.cls-25{letter-spacing:0em;}.cls-26{letter-spacing:0em;}</style></defs><path class="cls-1" d="M551.82,293.77c.12-.15-.07,0-.27.06Z"/><path class="cls-1" d="M541.16,236.38c3.81-11.27-4.33-22.29-16.71-25.16a5.81,5.81,0,0,0-6.25,2.67l-.64,1.06a23.82,23.82,0,0,0-3.4,7.23,15.29,15.29,0,0,0,1.8,12.21c3.87,6.16,9.93,8.3,16.52,8.26A9.26,9.26,0,0,0,541.16,236.38Z"/><path class="cls-1" d="M539.19,268c-5.77-2.29-7.82-2.92-14.24-3.5a3.77,3.77,0,0,0-3.64,1.94c-3.11,5.59-5.11,12.68-.67,18.21,5,6.21,15.14,8.57,22.93,9.05l3.33.28a20.67,20.67,0,0,0,4.35-.09c1.63-3.37,3-7,2.7-10.86C553.48,276.14,545.43,270.5,539.19,268Z"/><path d="M509.79,256.38h0l-.08.1-.12.17,0,0c-.07.32-.15.76-.28,1.44-.79,4.24,4.42,5.41,7.33,5.77,1.35.16,2.65.09,4,.22a17.4,17.4,0,0,0-4.52,2.63c-6.76,6.05-13.07,15.61-7.14,23,5.37,6.68,12.63,9.06,21,9.21,7.55,1.14,20-2.5,26.23-6.47,7-4.49,7.37-12.61,3.74-20.67C555,261,546.74,260.27,536.53,259c-3.47-.42-14.92.68-17-2.72-1.66-2.71.87-5.09,3.56-7.1a3.1,3.1,0,0,1,1.9-.61,33.23,33.23,0,0,0,9.37-.94l.21-.08,4.22-1.86.12-.06a32.1,32.1,0,0,0,6.92-4.92c9-9,7.67-19.78,1.14-27.09a2.66,2.66,0,0,1,.51-4.15l1.34-.9c.8-.44.6-.36,1.52-.82,1.67-.84,3.2,2.3,5.11,1.82.31-.08,4.33-2.18,4.79-2.45.17-.09,1.52-.58,2.51-1.1a1,1,0,0,0,0-1.72c-5-2.54-7.22-1.31-11.23,1-2.26,1.27-4.26,2.49-6.47,3.91a3.12,3.12,0,0,1-3.36,0,26.68,26.68,0,0,0-13.25-4.07c-2-.07-4,2.13-5.94,3.73l-.26.17-2.65,1.5c-6.7,4-10.83,8.28-12.95,16.33-2.85,10.85,2.67,18.32,11.72,20.74a1.6,1.6,0,0,1,.35,3c-1.93,1-5.84,2.83-7.16,3.77l-.05.05m4.43-20a15.29,15.29,0,0,1-1.8-12.21,23.82,23.82,0,0,1,3.4-7.23l.75-1.24a5.54,5.54,0,0,1,5.93-2.54c12.57,2.82,20.84,14,16.86,25.39a9.09,9.09,0,0,1-8.42,6.09C526,242.73,519.87,240.61,516,234.39Zm35.86,59.38-.27.06C551.75,293.72,551.94,293.62,551.82,293.77Zm-.26-.52a1.3,1.3,0,0,1-1,.75,23.67,23.67,0,0,1-3.61,0l-3.33-.28c-7.79-.48-17.94-2.84-22.93-9.05-4.51-5.62-2.38-12.84.82-18.46a3.43,3.43,0,0,1,3.3-1.71c6.57.58,8.6,1.2,14.43,3.52,6.24,2.48,14.29,8.12,14.76,15A20.67,20.67,0,0,1,551.56,293.25Z"/><path d="M206.34,168.08c-.14,12.66-.31,24.44-.53,37.1a1.35,1.35,0,0,1-1.35,1.33q-17.57,0-35.12.34a4.12,4.12,0,0,0-.59.07c.14-15.22.44-31.49.84-46.7,0-1.05-9.59,4.17-9.67,7-.81,30.48-1.08,62.11-.83,92.6,0,1.15,9.66-4.34,9.63-7.07q-.15-18.81,0-37.61a1.35,1.35,0,0,1,1.33-1.35q16.44-.24,32.87-.22h1.38a1.36,1.36,0,0,1,1.36,1.38c-.26,14.25-.6,29.56-1,43.81,0,1,9.6-4.18,9.67-7,.75-30.15,1.3-61.41,1.63-91.57C216,159.08,206.37,165.31,206.34,168.08Z"/><path class="cls-1" d="M252.48,227c-7.23-.09-17.9,4-18.72,12.46-1.1,11.2,10.41,13.4,18.92,11-.06-2.9,0-5.8.14-8.7.25-4.47.94-9,1-13.5C253,228.64,253.23,227,252.48,227Z"/><path d="M263.43,222c0-6.53-1.3-14.76-7.24-19.09-9.75-7.12-21.73.09-28.82,7.6-1.63,1.73-1.17,1.34.55,1.26,2.26-.12,8.23-6.3,10.53-6.72,3.37-.62,7.93,2.16,9.68,3.8,3.18,3,5.89,8.54,5.74,13.14a.54.54,0,0,1-.44.5c-10.45,2.1-22,8.61-27.23,17-3.76,6-2.69,13.66,3.65,17.34,7.37,4.27,15.34,1.44,22.29-2,.07,0,1.6-1,1.68-1.08l.16,3.69a.54.54,0,0,0,.77.47c2.23-1.08,7.79-4,7.87-6.49C262.93,241.17,263.43,232.11,263.43,222Zm-9.61,19.81c0,2.62,0,5.79,0,8.41a.56.56,0,0,1-.41.53c-8.49,2.22-20.73-.23-19.65-11.25.82-8.48,11.49-12.55,18.72-12.46h1.34C253.76,231.53,253.9,237.3,253.82,241.8Z"/><path d="M333.63,227.41c-.27-6.69-.05-15.71-3.31-21.69-4.57-8.38-15.72-2-22.61,3.72a.25.25,0,0,1-.4-.12,13,13,0,0,0-.92-2.23c-4.28-7.83-14.7-2-21.38,3a.26.26,0,0,1-.42-.22c.07-3,.14-5.91.22-8.87,0-1-9.56,3.12-9.64,5.92q-.76,25.83-.76,51.67c0,1.13,9.66-1,9.66-3.79,0-12.83.13-27.77.41-40.61a.25.25,0,0,1,.09-.19c1-.79,1.87-1.57,2.27-1.93,4-3.68,9.13-1,10.6,3.35,1.55,4.52,1.14,9.89,1.31,14.62.33,9.19.24,19-.29,28.2,0,1,9.08-.69,9.24-3.54.48-8.35,1-19.71.77-28.07-.1-3.79.26-8.92-.33-13.46l.06-.17c.86-.95,2.1-2,2.85-2.86,4.06-4.49,9.42.84,10.63,4.76s1.57,8.53,1.94,12.67c.88,10.08.42,20.23,0,30.32,0,1,9,.19,9.22-3.63C333.38,246.12,334,235.61,333.63,227.41Z"/><path class="cls-1" d="M355.4,213.34l-1.1,1.44q-.21,12.35-.43,24.68a4.71,4.71,0,0,0,1,3c3.32,4.28,8.4,8.22,13.28,9.29,3,.66,8.09,1.25,10.94-.25,2.17-1.14,3.38-4,4-6.52,2.13-9.88,1.88-21.3-5.46-29.07C373.18,211.15,359.4,205.76,355.4,213.34Z"/><path d="M376,203.2c-6.65-1.23-14.31,1-20.44,5.12a.71.71,0,0,1-1.12-.59l1-56.72c0-1.08-9.6,3.13-9.65,5.92-.59,34.12-1.18,67.52-1.78,101.65,0,.76,6.65-.7,7.39-3.73,0,0,0-.09.08-.6,0-.05.31.17.42.25,6.27,4,14.65,5.71,22.17,3.07,9.7-3.4,16.87-9,18.39-19.28C395.48,224.19,392.7,206.3,376,203.2Zm-21.15,10.22c4-7.58,18.35-2.27,22.83,2.48,7.34,7.77,7.59,19.19,5.46,29.07-.65,2.54-1.86,5.38-4,6.52-2.85,1.5-7.93.91-10.94.25-4.8-1.05-9.81-4.89-13.13-9.09a5.36,5.36,0,0,1-1.14-3.44L354.3,215"/><path d="M484.5,201.69a32.69,32.69,0,0,0-9.68,7.06l.09-8.43c0-1.1-9.62,3.15-9.65,5.92q-.28,26.47-.56,53c0,1.09,9.62-3.15,9.64-5.92q.21-19,.41-38l.14-.18c1.33-1.78,2.63-3.57,4-5.33.58-.76,1.29-1.48,2-2.25,1.12-.85,2.26-.5,3.35-.28a10.9,10.9,0,0,1,8.53,10c0,.09,9.93-3.52,9.6-6.71C501.39,201.23,492.31,198.08,484.5,201.69Z"/><path d="M439.38,207.37q-.18,18.24-.37,36.49c-.73.61-1.81,1.56-2.14,1.84-4.09,3.51-8.59,6.41-14.22,4.82s-7.94-7.09-8.8-12.45c-1.91-11.84-.67-23.68.22-35.57.07-.9-9.35,2-9.57,4.87a271.91,271.91,0,0,0-.87,27.68c.18,6.92-.07,16.27,6.28,20.75,8.88,6.27,20.87-1.65,29.07-8.3l-.12,11.88c0,1.1,9.62-3.15,9.64-5.92.18-17.34.35-34,.52-51.29C449,201.07,439.41,204.6,439.38,207.37Z"/><path class="cls-1" d="M596.21,221.57c1.3-.93,2.06-.94,2.85-2.58,0-9.78-8-11.38-16-11.11a33.47,33.47,0,0,0-6.64,24.58,24.31,24.31,0,0,1,3.6-2.18C585.62,227.67,590.59,224.23,596.21,221.57Z"/><path d="M612.82,245.83c-2.12,1.59-4.65,3.6-6.59,4.89a18.23,18.23,0,0,1-5.82,2.52,3.34,3.34,0,0,1-.43.1c-9.92,1.4-19-4.9-22.39-15.78v0a2.55,2.55,0,0,1,1.43-3,105.3,105.3,0,0,0,15.39-9.13c5.12-3.49,11.15-7.15,14.33-12.64l.45-1c-.19-10.59-9.84-11.42-18.46-10.76-1.61.12-4,2.39-5.24,3.29s-2.39,1.67-3.53,2.58l-.22.21a25.44,25.44,0,0,0-5,3.52c-10.66,10.82-14.38,27.4-6.19,40.87,8.93,14.68,26,9.17,38.1,1.06a44.58,44.58,0,0,0,4.15-3.33,14.15,14.15,0,0,0,1.44-2.49l.53-1.32C614.59,244.71,614.23,244.77,612.82,245.83Zm-28.45-38c7.3-.05,14.25,1.78,14.67,10.39a2.35,2.35,0,0,1-.42,1.5c-.62.87-1.29,1.05-2.26,1.71a2.38,2.38,0,0,1-.3.18c-5.56,2.65-10.49,6.06-16,8.64l-.21.1a2.54,2.54,0,0,1-3.69-2.27,33.91,33.91,0,0,1,6.2-19.19A2.46,2.46,0,0,1,584.37,207.86Z"/><path d="M659,160.21a17.27,17.27,0,0,0-14.59-1.84l-.17.08-7,4.38-.06,0c-3.24,2.56-5.81,4.73-7.37,8.11-4,8.7-1.66,20.67-1.81,28.69,0,0,0,0,0,0,.07,1.2.15,2.37.23,3.56-.08,1.58.53,2.25-1.71,2.46-.8.07-1.61.11-2.41.17-2.32.2-4.67,2-6.42,3.4-.34.27-3.8,3.76-2.44,3.64,4.17-.34,8.34-.59,12.52-.78a.69.69,0,0,1,.71.67q.45,22.83.89,45.67c0,1.18,9.16-2.67,9.1-5.39-.26-13.35,0-27.2-.24-40.6a.67.67,0,0,1,.67-.68c2.8,0,5.6-.05,8.4,0,2.22,0,4.79-2.08,6.42-3.4.35-.28,3.89-3.63,2.44-3.64-5.8-.08-11.59,0-17.38.24a.68.68,0,0,1-.71-.66c-.17-9.16-.37-18.33-.52-27.49a38.26,38.26,0,0,1,.43-6.68c.12-.74.26-1.47.45-2.19,0,0,0,0,0,0l.93-2.84a.7.7,0,0,1,.59-.48,14.48,14.48,0,0,1,10.18,2.84c4,3.1,4.74,8,5,12.76.08,1.62,3.71-.71,4.26-1.05,1.12-.67,5.47-3.15,5.39-4.87C664.51,169,663.85,163.39,659,160.21Z"/><path class="cls-1" d="M672.35,206.94l-.79,0h-.26a.2.2,0,0,1-.06.07,15.69,15.69,0,0,0-3,5,36.31,36.31,0,0,0-2.83,8.7,39.49,39.49,0,0,0,.15,16c1.82,8.33,7.86,18.32,16.5,18.68a14.43,14.43,0,0,0,3.66-.33l1.64-.82a.84.84,0,0,0,.4-.39,39.25,39.25,0,0,0,2.39-7.53c.92-5.51.4-11.64-.25-17.16C688.73,218.79,683.33,207.83,672.35,206.94Z"/><path d="M679.77,200.91a4.07,4.07,0,0,0-4.09,1.42,1,1,0,0,1-.21.15c-9.55,4.42-18.33,12.08-19.46,23.82-1.44,14.94,2.77,32,21.91,34a6.15,6.15,0,0,0,3-.45c8.37-3.49,16.47-10.62,18.5-18.18C703.3,227.28,696.25,205.71,679.77,200.91Zm10.41,45.29c-.13.79-.72,5.27-2.39,7.53-.25.33-.29.32-.39.39l-.8.4a5.4,5.4,0,0,1-1.76.66,19.74,19.74,0,0,1-2.75.09c-8.64-.36-14.68-10.35-16.5-18.68a39.49,39.49,0,0,1-.15-16,36.31,36.31,0,0,1,2.83-8.7,15.69,15.69,0,0,1,3-5,.2.2,0,0,0,.06-.07h.26l.79,0c11,.89,16.38,11.85,17.58,22.1C690.58,234.56,691.1,240.69,690.18,246.2Z"/><path d="M750.06,226.62c-.08-6,.11-13.4-4.27-18-7.26-7.66-19-4-27.72,1.19a1.05,1.05,0,0,1-1.59-.94c.07-2.05.14-4.1.24-6.14,0-1-9.51,3.08-9.64,5.91-.82,17.22-1,31.88-.51,49.1,0,1.22,9.42-2.31,9.34-5-.41-13.24,0-24.84.37-38.07a1,1,0,0,1,.46-.86c4.72-3.13,13-3.21,17.58-.13,3.64,2.44,5,6.71,5.65,10.82,1.71,11.08.49,22.11-.16,33.24-.06,1,9.4-1.79,9.57-4.65C749.89,244.26,750.17,235.44,750.06,226.62Z"/><path d="M795.81,245.15a55.45,55.45,0,0,1-6.19,4.81c-6.7,3.65-8.53,4.74-10.66-1.1s-1.22-16.43-1.67-22.44c-.31-4-.48-10.61-.55-14.61a.93.93,0,0,1,.88-.94c1.84-.1,3.67-.21,5.5-.33,2.32-.16,4.68-2,6.42-3.4.34-.27,4.17-3.7,2.8-3.61-4.76.33-9.87.52-14.62.65a1,1,0,0,1-1-1,181.49,181.49,0,0,1,1.68-20.54c.09-.75-9.29,3-9.65,5.92-.71,5.73-1.25,9-1.58,14.82a.91.91,0,0,1-.91.87H764c-2.22,0-4.78,2.08-6.42,3.4-.35.28-3.88,3.62-2.44,3.64,3.62.05,7.23,0,10.84,0a.91.91,0,0,1,.93.93c-.18,11.09-.63,24,1.32,34.81,3.41,18.87,17.89,8.69,26.89.78C796.45,246.62,797.19,244,795.81,245.15Z"/><path d="M830.6,249.42c-.82,1.67-3.31,2.69-3.36,2.69a14.62,14.62,0,0,1-1.62-.06,18.48,18.48,0,0,1-6-1.56,19.83,19.83,0,0,1-9.18-8.35c-.82-1.37-10.81,5.11-9.66,7,3.93,6.6,11.31,10.95,19.12,10.2a21.61,21.61,0,0,0,11.34-5.13c.34-.24,1.33-.89,1.66-1.13a20.51,20.51,0,0,0,3.94-3.2c3.79-3.66,4.34-7.64,2.24-12.48a29.44,29.44,0,0,0-12.45-13.58c-4.76-2.7-13.61-8-9.46-13.61.17-.23.77-1.18,1-1.26l.64-.47a3.33,3.33,0,0,1,1.57,0,12.91,12.91,0,0,1,3.93,1.72,6.72,6.72,0,0,1,2.74,6c-.17,1.66,3.94-.91,4.33-1.15a23.15,23.15,0,0,0,3.64-2.82c.57-.54,1.68-1.43,1.76-2.25.46-4.55-2.81-7.87-7.14-8.63a9.42,9.42,0,0,0-6.41,1.32l-7.3,4.63-1,.74c-6.48,5.45-12.71,14.54-2.83,20.34,4.55,2.67,8.88,4.61,12.48,8.67a29.36,29.36,0,0,1,4.39,6.52,16.18,16.18,0,0,1,1.37,3.56,3.7,3.7,0,0,1,.22,2.27"/><path d="M852.14,206.27c-2.59.95-1.9,5.78-2,13-.14,13.48-.78,26.83-.78,40.25,0,.41,9.51-2.41,9.65-7,.27-8.9.33-17.8.51-26.7q.13-6.12.25-12.25l.12-6.82c0-.8,0-2.06,0-2.94,0-.43-.12-.72-.48-.59Z"/><path d="M856.94,182.8a24.78,24.78,0,0,0-3.87,2.32c-.66.5-2.19,1.44-2,2.29l-.83,7.2a1.71,1.71,0,0,0,.19,1.07,2.29,2.29,0,0,0,2.24.93,18.42,18.42,0,0,0,6.93-4.3,1.78,1.78,0,0,0,.44-1l1.2-9.13C861.52,180.56,857.41,182.56,856.94,182.8Z"/><path d="M898.93,251.61c6.42-15.38,9.55-30.54,16-45.91.71-1.68-2.65,0-3.12.11-1.85.6-1.63.26-4.25,6.5l-10.39,33.84C891.64,234,883,215,877.22,203c-.67-1.39-8.49,4.19-7.34,6.63,12.15,25.79,12.12,32.75,18.25,48.2a.92.92,0,0,0,.71.55"/><circle class="cls-2" cx="163" cy="225.5" r="4.75"/><path d="M163,221a4.5,4.5,0,1,1-4.5,4.5A4.51,4.51,0,0,1,163,221m0-.5a5,5,0,1,0,5,5,5,5,0,0,0-5-5Z"/><circle class="cls-2" cx="186" cy="205.5" r="4.75"/><path d="M186,201a4.5,4.5,0,1,1-4.5,4.5A4.51,4.51,0,0,1,186,201m0-.5a5,5,0,1,0,5,5,5,5,0,0,0-5-5Z"/><line class="cls-3" x1="162.5" y1="226" x2="72.5" y2="226"/><text class="cls-4" transform="translate(71.33 240.5)">S<tspan class="cls-5" x="5.88" y="0">t</tspan><tspan class="cls-6" x="9.78" y="0">em</tspan></text><text class="cls-7" transform="translate(190.33 113.5)"><tspan class="cls-8">C</tspan><tspan class="cls-9" x="6.92" y="0">r</tspan><tspan x="10.73" y="0">ossbar</tspan></text><line class="cls-3" x1="185.5" y1="205" x2="185.5" y2="104"/><circle class="cls-2" cx="727" cy="206.5" r="4.75"/><path d="M727,202a4.5,4.5,0,1,1-4.5,4.5A4.51,4.51,0,0,1,727,202m0-.5a5,5,0,1,0,5,5,5,5,0,0,0-5-5Z"/><text class="cls-7" transform="translate(731.33 114.5)">Shoulder</text><text class="cls-7" transform="translate(687.33 338.5)"><tspan class="cls-8">S</tspan><tspan x="5.88" y="0">t</tspan><tspan class="cls-10" x="9.85" y="0">r</tspan><tspan class="cls-6" x="13.66" y="0">ess</tspan></text><line class="cls-3" x1="726.5" y1="206" x2="726.5" y2="105"/><circle class="cls-2" cx="560" cy="204.5" r="4.75"/><path d="M560,200a4.5,4.5,0,1,1-4.5,4.5A4.51,4.51,0,0,1,560,200m0-.5a5,5,0,1,0,5,5,5,5,0,0,0-5-5Z"/><text class="cls-7" transform="translate(564.33 184.5)">Ear</text><line class="cls-3" x1="559.5" y1="204" x2="559.5" y2="175.5"/><circle class="cls-2" cx="682" cy="256.5" r="4.75"/><path d="M682,252a4.5,4.5,0,1,1-4.5,4.5A4.51,4.51,0,0,1,682,252m0-.5a5,5,0,1,0,5,5,5,5,0,0,0-5-5Z"/><line class="cls-3" x1="682.5" y1="339.27" x2="682.5" y2="256.27"/><text class="cls-7" transform="translate(554.33 340.5)"><tspan class="cls-11">L</tspan><tspan x="5.5" y="0">oop</tspan></text><circle class="cls-2" cx="549" cy="294.5" r="4.75"/><path d="M549,290a4.5,4.5,0,1,1-4.5,4.5A4.51,4.51,0,0,1,549,290m0-.5a5,5,0,1,0,5,5,5,5,0,0,0-5-5Z"/><line class="cls-3" x1="549.5" y1="341.27" x2="549.5" y2="292.27"/><text class="cls-7" transform="translate(498.33 340.5)">Link</text><circle class="cls-2" cx="513" cy="258.5" r="4.75"/><path d="M513,254a4.5,4.5,0,1,1-4.5,4.5A4.51,4.51,0,0,1,513,254m0-.5a5,5,0,1,0,5,5,5,5,0,0,0-5-5Z"/><polyline class="cls-12" points="493.5 341.27 493.5 258.77 512.5 258.77"/><text class="cls-13" transform="translate(245.31 300.61)">B<tspan class="cls-14" x="6.55" y="0">o</tspan><tspan class="cls-15" x="13.06" y="0">wl</tspan></text><circle class="cls-2" cx="239.98" cy="254.61" r="4.75"/><path d="M240,250.11a4.5,4.5,0,1,1-4.5,4.5,4.51,4.51,0,0,1,4.5-4.5m0-.5a5,5,0,1,0,5,5,5,5,0,0,0-5-5Z"/><line class="cls-3" x1="240.48" y1="301.38" x2="240.48" y2="252.38"/><text class="cls-7" transform="translate(374.31 283.61)"><tspan class="cls-16">C</tspan><tspan x="6.83" y="0">ou</tspan><tspan class="cls-17" x="20.03" y="0">n</tspan><tspan class="cls-18" x="26.64" y="0">t</tspan><tspan class="cls-6" x="30.54" y="0">er</tspan></text><circle class="cls-2" cx="368.98" cy="237.61" r="4.75"/><path d="M369,233.11a4.5,4.5,0,1,1-4.5,4.5,4.51,4.51,0,0,1,4.5-4.5m0-.5a5,5,0,1,0,5,5,5,5,0,0,0-5-5Z"/><line class="cls-3" x1="369.48" y1="284.38" x2="369.48" y2="235.38"/><circle class="cls-2" cx="588.57" cy="218.13" r="4.75"/><path d="M588.57,213.63a4.5,4.5,0,1,1-4.5,4.5,4.51,4.51,0,0,1,4.5-4.5m0-.5a5,5,0,1,0,5,5,5,5,0,0,0-5-5Z"/><text class="cls-7" transform="translate(592.91 126.13)"><tspan class="cls-19">E</tspan><tspan class="cls-9" x="5.82" y="0">y</tspan><tspan x="11.35" y="0">e</tspan></text><line class="cls-3" x1="588.07" y1="217.63" x2="588.07" y2="116.63"/><text class="cls-7" transform="translate(615.47 309.61)"><tspan class="cls-8">A</tspan><tspan x="7.31" y="0">pe</tspan><tspan class="cls-20" x="20.15" y="0">r</tspan><tspan class="cls-21" x="24.01" y="0">a</tspan><tspan x="29.75" y="0">tu</tspan><tspan class="cls-9" x="40.33" y="0">r</tspan><tspan x="44.14" y="0">e</tspan></text><circle class="cls-2" cx="610.14" cy="227.61" r="4.75"/><path d="M610.14,223.11a4.5,4.5,0,1,1-4.5,4.5,4.51,4.51,0,0,1,4.5-4.5m0-.5a5,5,0,1,0,5,5,5,5,0,0,0-5-5Z"/><line class="cls-3" x1="610.64" y1="310.38" x2="610.64" y2="227.38"/><circle class="cls-2" cx="786.57" cy="207.13" r="4.75"/><path d="M786.57,202.63a4.5,4.5,0,1,1-4.5,4.5,4.51,4.51,0,0,1,4.5-4.5m0-.5a5,5,0,1,0,5,5,5,5,0,0,0-5-5Z"/><text class="cls-7" transform="translate(790.91 115.13)"><tspan class="cls-8">C</tspan><tspan class="cls-9" x="6.92" y="0">r</tspan><tspan x="10.73" y="0">ossbar</tspan></text><line class="cls-3" x1="786.07" y1="206.63" x2="786.07" y2="105.63"/><text class="cls-7" transform="translate(794.31 299.61)"><tspan class="cls-22">F</tspan><tspan x="5.53" y="0">inial</tspan></text><circle class="cls-2" cx="788.98" cy="253.61" r="4.75"/><path d="M789,249.11a4.5,4.5,0,1,1-4.5,4.5,4.51,4.51,0,0,1,4.5-4.5m0-.5a5,5,0,1,0,5,5,5,5,0,0,0-5-5Z"/><line class="cls-3" x1="789.48" y1="300.38" x2="789.48" y2="251.38"/><circle class="cls-2" cx="895.72" cy="240.52" r="4.75"/><path d="M895.72,236a4.5,4.5,0,1,1-4.5,4.5,4.51,4.51,0,0,1,4.5-4.5m0-.5a5,5,0,1,0,5,5,5,5,0,0,0-5-5Z"/><text class="cls-7" transform="translate(900.06 148.52)"><tspan class="cls-8">C</tspan><tspan class="cls-9" x="6.92" y="0">r</tspan><tspan x="10.73" y="0">o</tspan><tspan class="cls-5" x="17.32" y="0">t</tspan><tspan x="21.22" y="0">ch</tspan></text><line class="cls-3" x1="895.22" y1="240.02" x2="895.22" y2="139.02"/><text class="cls-7" transform="translate(895.53 304.87)"><tspan class="cls-23">V</tspan><tspan x="6.3" y="0">e</tspan><tspan class="cls-24" x="12.31" y="0">r</tspan><tspan class="cls-18" x="16.52" y="0">t</tspan><tspan class="cls-25" x="20.42" y="0">e</tspan><tspan class="cls-15" x="26.4" y="0">x</tspan></text><circle class="cls-2" cx="890.2" cy="258.87" r="4.75"/><path d="M890.2,254.37a4.5,4.5,0,1,1-4.5,4.5,4.51,4.51,0,0,1,4.5-4.5m0-.5a5,5,0,1,0,5,5,5,5,0,0,0-5-5Z"/><line class="cls-3" x1="890.7" y1="305.64" x2="890.7" y2="256.64"/><text class="cls-7" transform="translate(830.33 316.83)">Spine</text><circle class="cls-2" cx="825" cy="234.83" r="4.75"/><path d="M825,230.33a4.5,4.5,0,1,1-4.5,4.5,4.5,4.5,0,0,1,4.5-4.5m0-.5a5,5,0,1,0,5,5,5,5,0,0,0-5-5Z"/><line class="cls-3" x1="825.5" y1="317.6" x2="825.5" y2="234.6"/><circle class="cls-2" cx="836.77" cy="208.35" r="4.75"/><path d="M836.77,203.85a4.5,4.5,0,1,1-4.5,4.5,4.51,4.51,0,0,1,4.5-4.5m0-.5a5,5,0,1,0,5,5,5,5,0,0,0-5-5Z"/><text class="cls-13" transform="translate(841.1 149.35)">B<tspan class="cls-6" x="6.55" y="0">eak</tspan></text><line class="cls-3" x1="836.27" y1="207.85" x2="836.27" y2="139.5"/><circle class="cls-2" cx="492.33" cy="205.39" r="4.75"/><path d="M492.33,200.89a4.5,4.5,0,1,1-4.5,4.5,4.51,4.51,0,0,1,4.5-4.5m0-.5a5,5,0,1,0,5,5,5,5,0,0,0-5-5Z"/><text class="cls-7" transform="translate(493.66 146.39)">Ball <tspan class="cls-18" x="20.5" y="0">t</tspan><tspan x="24.4" y="0">e</tspan><tspan class="cls-26" x="30.41" y="0">r</tspan><tspan x="34.38" y="0">minal</tspan></text><line class="cls-3" x1="491.83" y1="204.89" x2="491.83" y2="138.5"/></svg>